<?xml version="1.0" encoding="UTF-8"?>
<!DOCTYPE svg PUBLIC "-//W3C//DTD SVG 1.1//EN" "http://www.w3.org/Graphics/SVG/1.1/DTD/svg11.dtd">
<svg width="229mm" height="145mm" viewBox="0 0 22900 14500" version="1.1" baseProfile="tiny" xmlns="http://www.w3.org/2000/svg" stroke-width="28.222" stroke-linejoin="round" xml:space="preserve">
 <path fill="rgb(255,255,255)" stroke="none" d="M 1,1 L 22903,1 22903,14504 1,14504 1,1 Z"/>
 <path fill="none" stroke="rgb(255,255,255)" stroke-linejoin="round" d="M 1,1 L 22903,1 22903,14504 1,14504 1,1 Z"/>
 <path fill="none" stroke="rgb(0,0,0)" stroke-linejoin="round" d="M 12239,12486 L 2643,12486 2643,504 21836,504 21836,12486 12239,12486 Z"/>
 <path fill="none" stroke="rgb(0,0,0)" stroke-linejoin="round" d="M 2643,12635 L 2643,12485"/>
 <path fill="none" stroke="rgb(0,0,0)" stroke-linejoin="round" d="M 4775,12635 L 4775,12485"/>
 <path fill="none" stroke="rgb(0,0,0)" stroke-linejoin="round" d="M 6908,12635 L 6908,12485"/>
 <path fill="none" stroke="rgb(0,0,0)" stroke-linejoin="round" d="M 9041,12635 L 9041,12485"/>
 <path fill="none" stroke="rgb(0,0,0)" stroke-linejoin="round" d="M 11173,12635 L 11173,12485"/>
 <path fill="none" stroke="rgb(0,0,0)" stroke-linejoin="round" d="M 13305,12635 L 13305,12485"/>
 <path fill="none" stroke="rgb(0,0,0)" stroke-linejoin="round" d="M 15438,12635 L 15438,12485"/>
 <path fill="none" stroke="rgb(0,0,0)" stroke-linejoin="round" d="M 17570,12635 L 17570,12485"/>
 <path fill="none" stroke="rgb(0,0,0)" stroke-linejoin="round" d="M 19703,12635 L 19703,12485"/>
 <path fill="none" stroke="rgb(0,0,0)" stroke-linejoin="round" d="M 21836,12635 L 21836,12485"/>
 <path fill="none" stroke="rgb(0,0,0)" stroke-linejoin="round" d="M 2643,12485 L 21836,12485"/>
 <path fill="none" stroke="rgb(0,0,0)" stroke-linejoin="round" d="M 2493,12485 L 2643,12485"/>
 <path fill="none" stroke="rgb(0,0,0)" stroke-linejoin="round" d="M 2493,10773 L 2643,10773"/>
 <path fill="none" stroke="rgb(0,0,0)" stroke-linejoin="round" d="M 2493,9061 L 2643,9061"/>
 <path fill="none" stroke="rgb(0,0,0)" stroke-linejoin="round" d="M 2493,7349 L 2643,7349"/>
 <path fill="none" stroke="rgb(0,0,0)" stroke-linejoin="round" d="M 2493,5638 L 2643,5638"/>
 <path fill="none" stroke="rgb(0,0,0)" stroke-linejoin="round" d="M 2493,3926 L 2643,3926"/>
 <path fill="none" stroke="rgb(0,0,0)" stroke-linejoin="round" d="M 2493,2214 L 2643,2214"/>
 <path fill="none" stroke="rgb(0,0,0)" stroke-linejoin="round" d="M 2493,503 L 2643,503"/>
 <path fill="none" stroke="rgb(0,0,0)" stroke-linejoin="round" d="M 2643,12485 L 2643,503"/>
 <path fill="rgb(0,0,0)" stroke="none" d="M 7105,7077 L 7228,7200 7351,7077 7228,6954 7105,7077 Z"/>
 <path fill="none" stroke="rgb(0,0,0)" stroke-linejoin="round" d="M 7105,7077 L 7228,7200 7351,7077 7228,6954 7105,7077 Z"/>
 <path fill="rgb(0,0,0)" stroke="none" d="M 10992,7520 L 11115,7643 11238,7520 11115,7397 10992,7520 Z"/>
 <path fill="none" stroke="rgb(0,0,0)" stroke-linejoin="round" d="M 10992,7520 L 11115,7643 11238,7520 11115,7397 10992,7520 Z"/>
 <path fill="rgb(0,0,0)" stroke="none" d="M 6785,8318 L 6908,8441 7031,8318 6908,8195 6785,8318 Z"/>
 <path fill="none" stroke="rgb(0,0,0)" stroke-linejoin="round" d="M 6785,8318 L 6908,8441 7031,8318 6908,8195 6785,8318 Z"/>
 <path fill="rgb(0,0,0)" stroke="none" d="M 14494,8086 L 14617,8209 14740,8086 14617,7963 14494,8086 Z"/>
 <path fill="none" stroke="rgb(0,0,0)" stroke-linejoin="round" d="M 14494,8086 L 14617,8209 14740,8086 14617,7963 14494,8086 Z"/>
 <path fill="rgb(0,0,0)" stroke="none" d="M 14273,7477 L 14396,7600 14519,7477 14396,7354 14273,7477 Z"/>
 <path fill="none" stroke="rgb(0,0,0)" stroke-linejoin="round" d="M 14273,7477 L 14396,7600 14519,7477 14396,7354 14273,7477 Z"/>
 <path fill="rgb(0,0,0)" stroke="none" d="M 17303,3672 L 17426,3795 17549,3672 17426,3549 17303,3672 Z"/>
 <path fill="none" stroke="rgb(0,0,0)" stroke-linejoin="round" d="M 17303,3672 L 17426,3795 17549,3672 17426,3549 17303,3672 Z"/>
 <path fill="rgb(0,0,0)" stroke="none" d="M 13716,3136 L 13839,3259 13962,3136 13839,3013 13716,3136 Z"/>
 <path fill="none" stroke="rgb(0,0,0)" stroke-linejoin="round" d="M 13716,3136 L 13839,3259 13962,3136 13839,3013 13716,3136 Z"/>
 <path fill="rgb(0,0,0)" stroke="none" d="M 11347,5296 L 11469,5419 11592,5296 11469,5173 11347,5296 Z"/>
 <path fill="none" stroke="rgb(0,0,0)" stroke-linejoin="round" d="M 11347,5296 L 11469,5419 11592,5296 11469,5173 11347,5296 Z"/>
 <path fill="rgb(0,0,0)" stroke="none" d="M 10238,8314 L 10361,8437 10484,8314 10361,8191 10238,8314 Z"/>
 <path fill="none" stroke="rgb(0,0,0)" stroke-linejoin="round" d="M 10238,8314 L 10361,8437 10484,8314 10361,8191 10238,8314 Z"/>
 <path fill="rgb(0,0,0)" stroke="none" d="M 11763,7849 L 11886,7972 12009,7849 11886,7726 11763,7849 Z"/>
 <path fill="none" stroke="rgb(0,0,0)" stroke-linejoin="round" d="M 11763,7849 L 11886,7972 12009,7849 11886,7726 11763,7849 Z"/>
 <path fill="rgb(0,0,0)" stroke="none" d="M 10639,3930 L 10762,4053 10885,3930 10762,3807 10639,3930 Z"/>
 <path fill="none" stroke="rgb(0,0,0)" stroke-linejoin="round" d="M 10639,3930 L 10762,4053 10885,3930 10762,3807 10639,3930 Z"/>
 <path fill="rgb(0,0,0)" stroke="none" d="M 12191,4295 L 12314,4418 12437,4295 12314,4172 12191,4295 Z"/>
 <path fill="none" stroke="rgb(0,0,0)" stroke-linejoin="round" d="M 12191,4295 L 12314,4418 12437,4295 12314,4172 12191,4295 Z"/>
 <path fill="rgb(0,0,0)" stroke="none" d="M 10046,5244 L 10169,5367 10292,5244 10169,5121 10046,5244 Z"/>
 <path fill="none" stroke="rgb(0,0,0)" stroke-linejoin="round" d="M 10046,5244 L 10169,5367 10292,5244 10169,5121 10046,5244 Z"/>
 <path fill="rgb(0,0,0)" stroke="none" d="M 11620,5443 L 11743,5566 11866,5443 11743,5320 11620,5443 Z"/>
 <path fill="none" stroke="rgb(0,0,0)" stroke-linejoin="round" d="M 11620,5443 L 11743,5566 11866,5443 11743,5320 11620,5443 Z"/>
 <path fill="rgb(0,0,0)" stroke="none" d="M 9983,5488 L 10106,5611 10229,5488 10106,5365 9983,5488 Z"/>
 <path fill="none" stroke="rgb(0,0,0)" stroke-linejoin="round" d="M 9983,5488 L 10106,5611 10229,5488 10106,5365 9983,5488 Z"/>
 <path fill="rgb(0,0,0)" stroke="none" d="M 7348,6554 L 7471,6677 7594,6554 7471,6431 7348,6554 Z"/>
 <path fill="none" stroke="rgb(0,0,0)" stroke-linejoin="round" d="M 7348,6554 L 7471,6677 7594,6554 7471,6431 7348,6554 Z"/>
 <path fill="rgb(0,0,0)" stroke="none" d="M 6792,8743 L 6915,8866 7038,8743 6915,8620 6792,8743 Z"/>
 <path fill="none" stroke="rgb(0,0,0)" stroke-linejoin="round" d="M 6792,8743 L 6915,8866 7038,8743 6915,8620 6792,8743 Z"/>
 <path fill="rgb(0,0,0)" stroke="none" d="M 10449,5980 L 10572,6103 10695,5980 10572,5857 10449,5980 Z"/>
 <path fill="none" stroke="rgb(0,0,0)" stroke-linejoin="round" d="M 10449,5980 L 10572,6103 10695,5980 10572,5857 10449,5980 Z"/>
 <path fill="rgb(0,0,0)" stroke="none" d="M 18455,4772 L 18578,4895 18701,4772 18578,4649 18455,4772 Z"/>
 <path fill="none" stroke="rgb(0,0,0)" stroke-linejoin="round" d="M 18455,4772 L 18578,4895 18701,4772 18578,4649 18455,4772 Z"/>
 <path fill="rgb(0,0,0)" stroke="none" d="M 15499,6190 L 15622,6313 15745,6190 15622,6067 15499,6190 Z"/>
 <path fill="none" stroke="rgb(0,0,0)" stroke-linejoin="round" d="M 15499,6190 L 15622,6313 15745,6190 15622,6067 15499,6190 Z"/>
 <path fill="rgb(0,0,0)" stroke="none" d="M 11606,5204 L 11729,5327 11852,5204 11729,5081 11606,5204 Z"/>
 <path fill="none" stroke="rgb(0,0,0)" stroke-linejoin="round" d="M 11606,5204 L 11729,5327 11852,5204 11729,5081 11606,5204 Z"/>
 <path fill="rgb(0,0,0)" stroke="none" d="M 15276,5559 L 15399,5682 15522,5559 15399,5436 15276,5559 Z"/>
 <path fill="none" stroke="rgb(0,0,0)" stroke-linejoin="round" d="M 15276,5559 L 15399,5682 15522,5559 15399,5436 15276,5559 Z"/>
 <path fill="rgb(0,0,0)" stroke="none" d="M 5366,6918 L 5489,7041 5612,6918 5489,6795 5366,6918 Z"/>
 <path fill="none" stroke="rgb(0,0,0)" stroke-linejoin="round" d="M 5366,6918 L 5489,7041 5612,6918 5489,6795 5366,6918 Z"/>
 <path fill="rgb(0,0,0)" stroke="none" d="M 9987,5541 L 10110,5664 10233,5541 10110,5418 9987,5541 Z"/>
 <path fill="none" stroke="rgb(0,0,0)" stroke-linejoin="round" d="M 9987,5541 L 10110,5664 10233,5541 10110,5418 9987,5541 Z"/>
 <path fill="rgb(0,0,0)" stroke="none" d="M 7861,7179 L 7984,7301 8107,7179 7984,7056 7861,7179 Z"/>
 <path fill="none" stroke="rgb(0,0,0)" stroke-linejoin="round" d="M 7861,7179 L 7984,7301 8107,7179 7984,7056 7861,7179 Z"/>
 <path fill="rgb(0,0,0)" stroke="none" d="M 11959,5543 L 12082,5666 12205,5543 12082,5420 11959,5543 Z"/>
 <path fill="none" stroke="rgb(0,0,0)" stroke-linejoin="round" d="M 11959,5543 L 12082,5666 12205,5543 12082,5420 11959,5543 Z"/>
 <path fill="rgb(0,0,0)" stroke="none" d="M 12969,7088 L 13092,7211 13215,7088 13092,6965 12969,7088 Z"/>
 <path fill="none" stroke="rgb(0,0,0)" stroke-linejoin="round" d="M 12969,7088 L 13092,7211 13215,7088 13092,6965 12969,7088 Z"/>
 <path fill="rgb(0,0,0)" stroke="none" d="M 17239,6389 L 17362,6512 17485,6389 17362,6266 17239,6389 Z"/>
 <path fill="none" stroke="rgb(0,0,0)" stroke-linejoin="round" d="M 17239,6389 L 17362,6512 17485,6389 17362,6266 17239,6389 Z"/>
 <path fill="rgb(0,0,0)" stroke="none" d="M 20127,2933 L 20250,3056 20373,2933 20250,2810 20127,2933 Z"/>
 <path fill="none" stroke="rgb(0,0,0)" stroke-linejoin="round" d="M 20127,2933 L 20250,3056 20373,2933 20250,2810 20127,2933 Z"/>
 <path fill="rgb(0,0,0)" stroke="none" d="M 8000,7179 L 8123,7301 8246,7179 8123,7056 8000,7179 Z"/>
 <path fill="none" stroke="rgb(0,0,0)" stroke-linejoin="round" d="M 8000,7179 L 8123,7301 8246,7179 8123,7056 8000,7179 Z"/>
 <path fill="rgb(0,0,0)" stroke="none" d="M 11801,7101 L 11924,7224 12047,7101 11924,6978 11801,7101 Z"/>
 <path fill="none" stroke="rgb(0,0,0)" stroke-linejoin="round" d="M 11801,7101 L 11924,7224 12047,7101 11924,6978 11801,7101 Z"/>
 <path fill="rgb(0,0,0)" stroke="none" d="M 8679,8270 L 8802,8393 8925,8270 8802,8147 8679,8270 Z"/>
 <path fill="none" stroke="rgb(0,0,0)" stroke-linejoin="round" d="M 8679,8270 L 8802,8393 8925,8270 8802,8147 8679,8270 Z"/>
 <path fill="rgb(0,0,0)" stroke="none" d="M 8996,5296 L 9119,5419 9242,5296 9119,5173 8996,5296 Z"/>
 <path fill="none" stroke="rgb(0,0,0)" stroke-linejoin="round" d="M 8996,5296 L 9119,5419 9242,5296 9119,5173 8996,5296 Z"/>
 <path fill="rgb(0,0,0)" stroke="none" d="M 10574,5189 L 10697,5312 10820,5189 10697,5066 10574,5189 Z"/>
 <path fill="none" stroke="rgb(0,0,0)" stroke-linejoin="round" d="M 10574,5189 L 10697,5312 10820,5189 10697,5066 10574,5189 Z"/>
 <path fill="rgb(0,0,0)" stroke="none" d="M 7423,8440 L 7546,8563 7669,8440 7546,8317 7423,8440 Z"/>
 <path fill="none" stroke="rgb(0,0,0)" stroke-linejoin="round" d="M 7423,8440 L 7546,8563 7669,8440 7546,8317 7423,8440 Z"/>
 <path fill="rgb(0,0,0)" stroke="none" d="M 10835,7171 L 10958,7293 11081,7171 10958,7048 10835,7171 Z"/>
 <path fill="none" stroke="rgb(0,0,0)" stroke-linejoin="round" d="M 10835,7171 L 10958,7293 11081,7171 10958,7048 10835,7171 Z"/>
 <path fill="rgb(0,0,0)" stroke="none" d="M 11653,3933 L 11776,4056 11899,3933 11776,3810 11653,3933 Z"/>
 <path fill="none" stroke="rgb(0,0,0)" stroke-linejoin="round" d="M 11653,3933 L 11776,4056 11899,3933 11776,3810 11653,3933 Z"/>
 <path fill="rgb(0,0,0)" stroke="none" d="M 13600,6494 L 13723,6617 13846,6494 13723,6371 13600,6494 Z"/>
 <path fill="none" stroke="rgb(0,0,0)" stroke-linejoin="round" d="M 13600,6494 L 13723,6617 13846,6494 13723,6371 13600,6494 Z"/>
 <path fill="rgb(0,0,0)" stroke="none" d="M 8209,8979 L 8332,9102 8455,8979 8332,8856 8209,8979 Z"/>
 <path fill="none" stroke="rgb(0,0,0)" stroke-linejoin="round" d="M 8209,8979 L 8332,9102 8455,8979 8332,8856 8209,8979 Z"/>
 <path fill="rgb(0,0,0)" stroke="none" d="M 10219,5296 L 10342,5419 10465,5296 10342,5173 10219,5296 Z"/>
 <path fill="none" stroke="rgb(0,0,0)" stroke-linejoin="round" d="M 10219,5296 L 10342,5419 10465,5296 10342,5173 10219,5296 Z"/>
 <path fill="rgb(0,0,0)" stroke="none" d="M 8260,6676 L 8383,6799 8506,6676 8383,6553 8260,6676 Z"/>
 <path fill="none" stroke="rgb(0,0,0)" stroke-linejoin="round" d="M 8260,6676 L 8383,6799 8506,6676 8383,6553 8260,6676 Z"/>
 <path fill="rgb(0,0,0)" stroke="none" d="M 9329,8264 L 9452,8387 9575,8264 9452,8141 9329,8264 Z"/>
 <path fill="none" stroke="rgb(0,0,0)" stroke-linejoin="round" d="M 9329,8264 L 9452,8387 9575,8264 9452,8141 9329,8264 Z"/>
 <path fill="rgb(0,0,0)" stroke="none" d="M 15056,3070 L 15179,3193 15302,3070 15179,2947 15056,3070 Z"/>
 <path fill="none" stroke="rgb(0,0,0)" stroke-linejoin="round" d="M 15056,3070 L 15179,3193 15302,3070 15179,2947 15056,3070 Z"/>
 <path fill="rgb(0,0,0)" stroke="none" d="M 13487,6017 L 13610,6140 13733,6017 13610,5894 13487,6017 Z"/>
 <path fill="none" stroke="rgb(0,0,0)" stroke-linejoin="round" d="M 13487,6017 L 13610,6140 13733,6017 13610,5894 13487,6017 Z"/>
 <path fill="rgb(0,0,0)" stroke="none" d="M 14942,7271 L 15065,7394 15188,7271 15065,7149 14942,7271 Z"/>
 <path fill="none" stroke="rgb(0,0,0)" stroke-linejoin="round" d="M 14942,7271 L 15065,7394 15188,7271 15065,7149 14942,7271 Z"/>
 <path fill="rgb(0,0,0)" stroke="none" d="M 14098,7017 L 14221,7140 14344,7017 14221,6894 14098,7017 Z"/>
 <path fill="none" stroke="rgb(0,0,0)" stroke-linejoin="round" d="M 14098,7017 L 14221,7140 14344,7017 14221,6894 14098,7017 Z"/>
 <path fill="rgb(0,0,0)" stroke="none" d="M 7045,7798 L 7168,7921 7291,7798 7168,7675 7045,7798 Z"/>
 <path fill="none" stroke="rgb(0,0,0)" stroke-linejoin="round" d="M 7045,7798 L 7168,7921 7291,7798 7168,7675 7045,7798 Z"/>
 <path fill="rgb(0,0,0)" stroke="none" d="M 11997,5419 L 12120,5542 12243,5419 12120,5296 11997,5419 Z"/>
 <path fill="none" stroke="rgb(0,0,0)" stroke-linejoin="round" d="M 11997,5419 L 12120,5542 12243,5419 12120,5296 11997,5419 Z"/>
 <path fill="rgb(0,0,0)" stroke="none" d="M 10955,6671 L 11078,6794 11201,6671 11078,6548 10955,6671 Z"/>
 <path fill="none" stroke="rgb(0,0,0)" stroke-linejoin="round" d="M 10955,6671 L 11078,6794 11201,6671 11078,6548 10955,6671 Z"/>
 <path fill="none" stroke="rgb(0,0,0)" stroke-width="105" stroke-linejoin="round" d="M 5489,7750 L 20250,4131"/>
 <text class="TextShape"><tspan class="TextParagraph" font-family="Arial" font-size="353px" font-weight="400"><tspan class="TextPosition" x="2034" y="13079"/><tspan class="TextPosition" x="2034" y="13079"><tspan fill="rgb(0,0,0)" stroke="none">$30,000</tspan></tspan></tspan></text>
 <text class="TextShape"><tspan class="TextParagraph" font-family="Arial" font-size="353px" font-weight="400"><tspan class="TextPosition" x="4166" y="13079"/><tspan class="TextPosition" x="4166" y="13079"><tspan fill="rgb(0,0,0)" stroke="none">$35,000</tspan></tspan></tspan></text>
 <text class="TextShape"><tspan class="TextParagraph" font-family="Arial" font-size="353px" font-weight="400"><tspan class="TextPosition" x="6299" y="13079"/><tspan class="TextPosition" x="6299" y="13079"><tspan fill="rgb(0,0,0)" stroke="none">$40,000</tspan></tspan></tspan></text>
 <text class="TextShape"><tspan class="TextParagraph" font-family="Arial" font-size="353px" font-weight="400"><tspan class="TextPosition" x="8432" y="13079"/><tspan class="TextPosition" x="8432" y="13079"><tspan fill="rgb(0,0,0)" stroke="none">$45,000</tspan></tspan></tspan></text>
 <text class="TextShape"><tspan class="TextParagraph" font-family="Arial" font-size="353px" font-weight="400"><tspan class="TextPosition" x="10564" y="13079"/><tspan class="TextPosition" x="10564" y="13079"><tspan fill="rgb(0,0,0)" stroke="none">$50,000</tspan></tspan></tspan></text>
 <text class="TextShape"><tspan class="TextParagraph" font-family="Arial" font-size="353px" font-weight="400"><tspan class="TextPosition" x="12697" y="13079"/><tspan class="TextPosition" x="12697" y="13079"><tspan fill="rgb(0,0,0)" stroke="none">$55,000</tspan></tspan></tspan></text>
 <text class="TextShape"><tspan class="TextParagraph" font-family="Arial" font-size="353px" font-weight="400"><tspan class="TextPosition" x="14830" y="13079"/><tspan class="TextPosition" x="14830" y="13079"><tspan fill="rgb(0,0,0)" stroke="none">$60,000</tspan></tspan></tspan></text>
 <text class="TextShape"><tspan class="TextParagraph" font-family="Arial" font-size="353px" font-weight="400"><tspan class="TextPosition" x="16962" y="13079"/><tspan class="TextPosition" x="16962" y="13079"><tspan fill="rgb(0,0,0)" stroke="none">$65,000</tspan></tspan></tspan></text>
 <text class="TextShape"><tspan class="TextParagraph" font-family="Arial" font-size="353px" font-weight="400"><tspan class="TextPosition" x="19095" y="13079"/><tspan class="TextPosition" x="19095" y="13079"><tspan fill="rgb(0,0,0)" stroke="none">$70,000</tspan></tspan></tspan></text>
 <text class="TextShape"><tspan class="TextParagraph" font-family="Arial" font-size="353px" font-weight="400"><tspan class="TextPosition" x="21228" y="13079"/><tspan class="TextPosition" x="21228" y="13079"><tspan fill="rgb(0,0,0)" stroke="none">$75,000</tspan></tspan></tspan></text>
 <text class="TextShape"><tspan class="TextParagraph" font-family="Arial" font-size="353px" font-weight="400"><tspan class="TextPosition" x="1732" y="12619"/><tspan class="TextPosition" x="1732" y="12619"><tspan fill="rgb(0,0,0)" stroke="none">80.0</tspan></tspan></tspan></text>
 <text class="TextShape"><tspan class="TextParagraph" font-family="Arial" font-size="353px" font-weight="400"><tspan class="TextPosition" x="1732" y="10907"/><tspan class="TextPosition" x="1732" y="10907"><tspan fill="rgb(0,0,0)" stroke="none">90.0</tspan></tspan></tspan></text>
 <text class="TextShape"><tspan class="TextParagraph" font-family="Arial" font-size="353px" font-weight="400"><tspan class="TextPosition" x="1546" y="9195"/><tspan class="TextPosition" x="1546" y="9195"><tspan fill="rgb(0,0,0)" stroke="none">100.0</tspan></tspan></tspan></text>
 <text class="TextShape"><tspan class="TextParagraph" font-family="Arial" font-size="353px" font-weight="400"><tspan class="TextPosition" x="1546" y="7483"/><tspan class="TextPosition" x="1546" y="7483"><tspan fill="rgb(0,0,0)" stroke="none">110.0</tspan></tspan></tspan></text>
 <text class="TextShape"><tspan class="TextParagraph" font-family="Arial" font-size="353px" font-weight="400"><tspan class="TextPosition" x="1546" y="5771"/><tspan class="TextPosition" x="1546" y="5771"><tspan fill="rgb(0,0,0)" stroke="none">120.0</tspan></tspan></tspan></text>
 <text class="TextShape"><tspan class="TextParagraph" font-family="Arial" font-size="353px" font-weight="400"><tspan class="TextPosition" x="1546" y="4059"/><tspan class="TextPosition" x="1546" y="4059"><tspan fill="rgb(0,0,0)" stroke="none">130.0</tspan></tspan></tspan></text>
 <text class="TextShape"><tspan class="TextParagraph" font-family="Arial" font-size="353px" font-weight="400"><tspan class="TextPosition" x="1546" y="2347"/><tspan class="TextPosition" x="1546" y="2347"><tspan fill="rgb(0,0,0)" stroke="none">140.0</tspan></tspan></tspan></text>
 <text class="TextShape"><tspan class="TextParagraph" font-family="Arial" font-size="353px" font-weight="400"><tspan class="TextPosition" x="1546" y="636"/><tspan class="TextPosition" x="1546" y="636"><tspan fill="rgb(0,0,0)" stroke="none">150.0</tspan></tspan></tspan></text>
 <text class="TextShape"><tspan class="TextParagraph" font-family="Arial" font-size="353px" font-weight="700"><tspan class="TextPosition" x="10209" y="13900"/><tspan class="TextPosition" x="10209" y="13900"><tspan fill="rgb(0,0,0)" stroke="none">State Median Income</tspan></tspan></tspan></text>
 <text class="TextShape" transform="translate(902,10164) rotate(-90) translate(-902,-10164)"><tspan class="TextParagraph" font-family="Arial" font-size="353px" font-weight="700"><tspan class="TextPosition" x="902" y="10164"/><tspan class="TextPosition" x="902" y="10164"><tspan fill="rgb(0,0,0)" stroke="none">Sweetened Snack Consumption (pounds)</tspan></tspan></tspan></text>
</svg>